#!OML:ASF F:\VICON\USERDATA\INSTALL\rory3\rory3.ASF
:FULLY-SPECIFIED
:DEGREES
250
root 4.52406 17.544 -1.16663 -9.74 -45.4179 11.1908
lowerback 7.50974 -0.239589 -9.43697
upperback 1.37992 -1.11637 -0.677748
thorax -2.61158 -0.496165 4.70224
lowerneck -19.2186 -3.97516 -10.3949
upperneck 29.9981 -4.7288 6.67703
head 13.8305 -2.44957 3.60487
rclavicle 1.64743e-014 3.18055e-015
rhumerus -37.3814 -3.83677 -78.3156
rradius 33.7809
rwrist 3.23661
rhand -15.8383 11.5821
rfingers 7.12502
rthumb 10.3562 -18.1429
lclavicle 1.64743e-014 3.18055e-015
lhumerus -32.7861 -3.75789 80.9809
lradius 44.3848
lwrist -2.73538
lhand -16.1149 24.7438
lfingers 7.12502
lthumb 10.0893 54.4819
rfemur -31.4479 -0.0642605 11.4034
rtibia 23.1393
rfoot -12.1439 -9.07984
rtoes -3.72289
lfemur 9.39006 -0.519587 -31.9966
ltibia 12.1488
lfoot -13.626 -12.0075
ltoes 12.7806
251
root 4.40771 17.534 -1.07273 -9.57689 -45.2699 11.2212
lowerback 7.33452 -0.292768 -9.48833
upperback 1.30308 -1.1742 -0.666685
thorax -2.58416 -0.522654 4.74528
lowerneck -19.0247 -3.99979 -10.4735
upperneck 29.7657 -4.76979 6.7521
head 13.698 -2.46469 3.63587
rclavicle -2.38542e-015 2.78299e-014
rhumerus -37.5758 -3.57485 -78.3565
rradius 33.7166
rwrist 3.23002
rhand -15.8291 11.6807
rfingers 7.12502
rthumb 10.3651 -18.0438
lclavicle -2.38542e-015 2.78299e-014
lhumerus -32.7529 -4.14991 81.182
lradius 44.3102
lwrist -2.7599
lhand -16.0164 24.5813
lfingers 7.12502
lthumb 10.1843 54.3148
rfemur -31.7593 0.76283 10.9596
rtibia 21.975
rfoot -12.8931 -10.3134
rtoes -5.32656
lfemur 10.2027 -0.219127 -31.9248
ltibia 11.212
lfoot -13.7 -12.2644
ltoes 11.1406
252
root 4.29377 17.5253 -0.981478 -9.4321 -45.0867 11.3011
lowerback 7.18224 -0.351934 -9.56145
upperback 1.22194 -1.24475 -0.662697
thorax -2.5717 -0.554505 4.79444
lowerneck -19.0125 -4.04231 -10.5328
upperneck 29.6739 -4.82538 6.80936
head 13.6661 -2.48584 3.65697
rclavicle 9.78021e-014 -2.62396e-014
rhumerus -37.7556 -3.26903 -78.4551
rradius 33.6622
rwrist 3.26337
rhand -16.1347 11.2895
rfingers 7.12502
rthumb 10.0702 -18.4495
lclavicle 9.78021e-014 -2.62396e-014
lhumerus -32.7437 -4.38339 81.3611
lradius 44.3305
lwrist -2.91332
lhand -15.8982 24.7693
lfingers 7.12502
lthumb 10.2984 54.4972
rfemur -32.1118 1.21144 10.6239
rtibia 21.1022
rfoot -13.5676 -11.4829
rtoes -6.8981
lfemur 10.9828 0.0729955 -31.8738
ltibia 10.2319
lfoot -13.6497 -12.65
ltoes 9.87157
253
root 4.17872 17.5113 -0.886025 -9.40391 -45.0374 11.4084
lowerback 7.08508 -0.341942 -9.58951
upperback 1.17865 -1.22543 -0.684913
thorax -2.56562 -0.543406 4.78368
lowerneck -19.2246 -4.09079 -10.4736
upperneck 29.767 -4.87356 6.74082
head 13.7535 -2.5064 3.61198
rclavicle 2.84759e-014 -7.15625e-015
rhumerus -37.9278 -3.08089 -78.4741
rradius 33.5481
rwrist 3.50517
rhand -16.1669 11.1254
rfingers 7.12502
rthumb 10.0391 -18.6152
lclavicle 2.84759e-014 -7.15625e-015
lhumerus -32.7085 -4.67737 81.5714
lradius 44.2994
lwrist -2.92793
lhand -15.9903 24.9671
lfingers 7.12502
lthumb 10.2095 54.6994
rfemur -32.4025 0.961285 10.6346
rtibia 20.4812
rfoot -13.6717 -11.9759
rtoes -8.28045
lfemur 11.8799 -0.105109 -31.9488
ltibia 9.31515
lfoot -13.6184 -12.4816
ltoes 8.77754
254
root 4.06738 17.4925 -0.794461 -9.41403 -45.0424 11.4939
lowerback 6.95464 -0.281799 -9.43299
upperback 1.29919 -1.11762 -0.831204
thorax -2.3889 -0.50441 4.52964
lowerneck -19.4455 -4.20439 -10.4898
upperneck 29.6359 -5.07675 6.98183
head 13.7755 -2.55528 3.67214
rclavicle -1.21259e-014 -2.38542e-015
rhumerus -37.9156 -3.06972 -78.6217
rradius 33.4588
rwrist 3.77901
rhand -15.9458 11.1567
rfingers 7.12502
rthumb 10.2524 -18.5734
lclavicle -1.21259e-014 -2.38542e-015
lhumerus -32.2826 -5.11023 81.5972
lradius 44.109
lwrist -3.11606
lhand -15.7587 24.6862
lfingers 7.12502
lthumb 10.4329 54.4073
rfemur -32.6703 0.254875 10.9243
rtibia 20.1254
rfoot -13.3075 -11.9867
rtoes -8.98108
lfemur 12.8665 -0.222805 -32.0017
ltibia 8.29155
lfoot -13.3126 -12.4327
ltoes 8.85731
255
root 3.95885 17.4755 -0.706132 -9.3682 -45.0053 11.5681
lowerback 7.18579 -0.341864 -9.64005
upperback 1.12696 -1.24473 -0.707769
thorax -2.67286 -0.545804 4.79228
lowerneck -19.528 -4.12688 -10.4491
upperneck 29.6754 -4.89751 6.76942
head 13.7824 -2.50052 3.61138
rclavicle 6.01572e-014 1.51076e-014
rhumerus -38.1 -2.36145 -78.6419
rradius 33.3123
rwrist 4.01186
rhand -15.7369 11.1582
rfingers 7.12502
rthumb 10.454 -18.5618
lclavicle 6.01572e-014 1.51076e-014
lhumerus -32.4231 -4.86013 81.7861
lradius 43.9867
lwrist -3.63477
lhand -15.5883 24.1961
lfingers 7.12502
lthumb 10.5973 53.9089
rfemur -33.0588 -0.72508 11.3439
rtibia 20.0929
rfoot -12.7482 -11.7696
rtoes -8.86701
lfemur 13.9741 -0.391341 -32.0604
ltibia 6.84865
lfoot -12.4788 -12.5923
ltoes 10.5382
256
root 3.84864 17.4617 -0.616077 -9.40586 -44.9703 11.6672
lowerback 7.2632 -0.343116 -9.66828
upperback 1.10474 -1.25908 -0.710909
thorax -2.73684 -0.54889 4.8079
lowerneck -19.5916 -4.14296 -10.339
upperneck 29.5932 -4.88835 6.60235
head 13.7515 -2.50261 3.52329
rclavicle -5.56349e-014 -2.14687e-014
rhumerus -38.1368 -1.99343 -78.713
rradius 33.0927
rwrist 4.27126
rhand -15.6126 11.1086
rfingers 7.12502
rthumb 10.5739 -18.6054
lclavicle -5.56349e-014 -2.14687e-014
lhumerus -32.4366 -5.05567 81.9664
lradius 43.9772
lwrist -3.76116
lhand -16.006 24.0427
lfingers 7.12502
lthumb 10.1944 53.7757
rfemur -33.4087 -1.53837 11.702
rtibia 20.2669
rfoot -11.9303 -11.6003
rtoes -8.42095
lfemur 15.3499 -0.541224 -32.1395
ltibia 5.05156
lfoot -11.4952 -12.6994
ltoes 12.3284
257
root 3.73947 17.4428 -0.523215 -9.70058 -44.9553 11.961
lowerback 7.47689 -0.307108 -9.81107
upperback 1.12677 -1.249 -0.754755
thorax -2.83296 -0.539353 4.84504
lowerneck -19.7335 -4.18507 -10.3866
upperneck 29.5587 -4.9209 6.62888
head 13.7735 -2.51429 3.53485
rclavicle 3.42904e-014 1.43125e-014
rhumerus -38.2424 -1.3748 -78.8264
rradius 32.9836
rwrist 4.31414
rhand -15.4952 11.0007
rfingers 7.12502
rthumb 10.6871 -18.7075
lclavicle 3.42904e-014 1.43125e-014
lhumerus -32.4666 -5.38951 82.1977
lradius 44.0354
lwrist -3.73228
lhand -16.3834 24.2269
lfingers 7.12502
lthumb 9.83023 53.9775
rfemur -33.6427 -2.63734 12.064
rtibia 20.5239
rfoot -10.982 -11.0496
rtoes -8.76282
lfemur 17.1729 -0.60031 -32.4504
ltibia 2.68733
lfoot -10.6319 -12.3296
ltoes 10.185
258
root 3.62965 17.4224 -0.436053 -9.86866 -44.9172 12.1519
lowerback 7.68448 -0.312862 -10.0254
upperback 1.16374 -1.29558 -0.704705
thorax -2.89699 -0.558604 5.02606
lowerneck -19.9252 -4.22332 -10.5113
upperneck 29.4333 -4.91001 6.66729
head 13.7655 -2.51083 3.5697
rclavicle 4.98453e-014 8.74653e-015
rhumerus -38.2026 -0.775905 -78.8409
rradius 32.8376
rwrist 4.49774
rhand -15.2203 11.2023
rfingers 7.12502
rthumb 10.9522 -18.4921
lclavicle 4.98453e-014 8.74653e-015
lhumerus -32.4233 -5.38069 82.4245
lradius 43.9611
lwrist -4.06843
lhand -16.4891 24.2142
lfingers 7.12502
lthumb 9.72832 53.9695
rfemur -33.9648 -3.59416 12.4436
rtibia 20.9591
rfoot -10.4249 -10.5948
rtoes -8.86539
lfemur 19.0952 -0.700273 -32.6974
ltibia -5.40694e-014
lfoot -9.76 -11.9584
ltoes 5.99164
259
root 3.51959 17.4143 -0.35288 -9.80513 -44.8282 12.0441
lowerback 7.91094 -0.357156 -10.0575
upperback 1.19823 -1.37833 -0.599571
thorax -2.97061 -0.596424 5.16735
lowerneck -20.0537 -4.23106 -10.574
upperneck 29.2759 -4.86214 6.64722
head 13.7222 -2.49271 3.57617
rclavicle -1.68967e-015 -1.43125e-014
rhumerus -38.0132 -0.630707 -78.7072
rradius 32.4681
rwrist 4.98626
rhand -14.6913 11.7655
rfingers 7.12502
rthumb 11.4625 -17.9012
lclavicle -1.68967e-015 -1.43125e-014
lhumerus -32.4779 -5.22159 82.5692
lradius 43.9824
lwrist -4.45934
lhand -16.4583 23.7768
lfingers 7.12502
lthumb 9.75799 53.5307
rfemur -34.1882 -3.88676 12.6546
rtibia 21.4962
rfoot -10.371 -10.2897
rtoes -6.80828
lfemur 19.6056 -0.921736 -32.6201
ltibia 1.90833e-014
lfoot -9.77907 -11.8401
ltoes 5.38964
260
root 3.40379 17.4075 -0.25822 -10.1528 -44.6724 12.3285
lowerback 7.74382 -0.310208 -9.97956
upperback 1.61627 -1.27557 -0.825756
thorax -2.46098 -0.589035 4.86695
lowerneck -20.3476 -4.37069 -10.4876
upperneck 28.8557 -5.0961 6.85873
head 13.6352 -2.53811 3.59231
rclavicle 2.29596e-014 2.3059e-014
rhumerus -37.3263 -1.79107 -78.4509
rradius 31.7582
rwrist 6.21713
rhand -14.1762 12.4152
rfingers 7.12502
rthumb 11.9592 -17.2232
lclavicle 2.29596e-014 2.3059e-014
lhumerus -31.8743 -5.5918 82.5413
lradius 43.8433
lwrist -4.78675
lhand -16.3211 23.5325
lfingers 7.12502
lthumb 9.89035 53.2802
rfemur -34.1505 -4.16677 12.4536
rtibia 22.0161
rfoot -10.4604 -9.38659
rtoes -4.40571
lfemur 20.3174 -1.12286 -32.8609
ltibia -2.54444e-014
lfoot -9.56782 -11.866
ltoes 6.49234
261
root 3.28132 17.3912 -0.159364 -10.4049 -44.4369 12.5498
lowerback 7.67028 -0.320379 -10.046
upperback 1.89474 -1.27403 -0.927976
thorax -2.12818 -0.615626 4.79157
lowerneck -20.6009 -4.46587 -10.4571
upperneck 28.5791 -5.23472 6.99035
head 13.5903 -2.5644 3.60659
rclavicle -6.48038e-014 1.11319e-014
rhumerus -36.8521 -2.27144 -78.2824
rradius 31.1704
rwrist 6.89483
rhand -13.9433 12.5485
rfingers 7.12502
rthumb 12.1838 -17.0767
lclavicle -6.48038e-014 1.11319e-014
lhumerus -31.5331 -5.75006 82.6826
lradius 43.6051
lwrist -5.31411
lhand -16.7239 23.6466
lfingers 7.12502
lthumb 9.50176 53.4123
rfemur -34.0901 -4.4988 12.3135
rtibia 22.4478
rfoot -10.3953 -8.31759
rtoes -4.25066
lfemur 21.0482 -1.41035 -33.0989
ltibia -2.8625e-014
lfoot -9.45677 -11.7385
ltoes 4.89399
262
root 3.15581 17.3759 -0.062317 -10.3856 -44.0905 12.5121
lowerback 7.67983 -0.399582 -10.0685
upperback 2.01098 -1.37529 -0.923233
thorax -1.99468 -0.676943 4.81652
lowerneck -20.7621 -4.50429 -10.3215
upperneck 28.4382 -5.2797 6.90581
head 13.5625 -2.57302 3.53627
rclavicle 9.39755e-014 1.23246e-014
rhumerus -36.6459 -2.22127 -78.2557
rradius 30.7582
rwrist 6.93083
rhand -13.7535 12.3035
rfingers 7.12502
rthumb 12.3668 -17.3107
lclavicle 9.39755e-014 1.23246e-014
lhumerus -31.4603 -5.88824 82.8914
lradius 43.2843
lwrist -5.96686
lhand -17.3424 23.681
lfingers 7.12502
lthumb 8.90491 53.4731
rfemur -33.9836 -4.30329 12.0771
rtibia 22.7906
rfoot -10.2632 -7.50996
rtoes -4.35006
lfemur 21.6465 -1.8645 -33.146
ltibia -6.36111e-014
lfoot -9.07003 -11.7213
ltoes 3.64644
263
root 3.02928 17.3727 0.0322178 -10.1126 -43.7061 12.2439
lowerback 7.62218 -0.530262 -9.9817
upperback 2.10343 -1.52593 -0.826657
thorax -1.84134 -0.762665 4.87933
lowerneck -20.9876 -4.50192 -10.2448
upperneck 28.3556 -5.23767 6.8141
head 13.565 -2.55113 3.49046
rclavicle -5.36719e-015 2.10712e-014
rhumerus -36.3574 -2.30074 -78.107
rradius 30.2227
rwrist 7.1051
rhand -13.7482 12.1726
rfingers 7.12502
rthumb 12.3719 -17.4413
lclavicle -5.36719e-015 2.10712e-014
lhumerus -31.4198 -6.0668 83.1477
lradius 43.0414
lwrist -6.11206
lhand -17.3594 23.7577
lfingers 7.12502
lthumb 8.88856 53.5505
rfemur -33.7453 -3.65788 11.7674
rtibia 22.9174
rfoot -10.0797 -6.7677
rtoes -4.68982
lfemur 22.1289 -2.41183 -33.0123
ltibia 5.40694e-014
lfoot -8.75524 -11.6304
ltoes 2.03765
